<mxfile host="app.diagrams.net" modified="2024-05-03T08:56:22.610Z" agent="Mozilla/5.0 (Windows NT 10.0; Win64; x64) AppleWebKit/537.36 (KHTML, like Gecko) Chrome/124.0.0.0 Safari/537.36" etag="yqj2XMwwZBz-q2yDu8dQ" version="24.2.5" type="device">
  <diagram name="第 1 页" id="OvXd8-j-Z87rAZmLBxW2">
    <mxGraphModel dx="1050" dy="530" grid="1" gridSize="10" guides="1" tooltips="1" connect="1" arrows="1" fold="1" page="1" pageScale="1" pageWidth="827" pageHeight="1169" math="0" shadow="0">
      <root>
        <mxCell id="0" />
        <mxCell id="1" parent="0" />
        <mxCell id="Wcn8gaRO-9h2TXcu42JJ-1" value="BookingApllication.java" style="rounded=1;whiteSpace=wrap;html=1;" vertex="1" parent="1">
          <mxGeometry x="80" y="80" width="140" height="40" as="geometry" />
        </mxCell>
        <mxCell id="Wcn8gaRO-9h2TXcu42JJ-3" value="WebConfigurer.java" style="rounded=1;whiteSpace=wrap;html=1;" vertex="1" parent="1">
          <mxGeometry x="100" y="130" width="120" height="40" as="geometry" />
        </mxCell>
        <mxCell id="Wcn8gaRO-9h2TXcu42JJ-4" style="edgeStyle=orthogonalEdgeStyle;rounded=0;orthogonalLoop=1;jettySize=auto;html=1;exitX=0;exitY=0.5;exitDx=0;exitDy=0;entryX=0.071;entryY=0.99;entryDx=0;entryDy=0;entryPerimeter=0;endArrow=none;endFill=0;" edge="1" parent="1" source="Wcn8gaRO-9h2TXcu42JJ-3" target="Wcn8gaRO-9h2TXcu42JJ-1">
          <mxGeometry relative="1" as="geometry" />
        </mxCell>
        <mxCell id="Wcn8gaRO-9h2TXcu42JJ-6" value="" style="whiteSpace=wrap;html=1;" vertex="1" parent="1">
          <mxGeometry x="280" y="80" width="440" height="320" as="geometry" />
        </mxCell>
        <mxCell id="Wcn8gaRO-9h2TXcu42JJ-7" style="edgeStyle=orthogonalEdgeStyle;rounded=0;orthogonalLoop=1;jettySize=auto;html=1;exitX=1;exitY=0.5;exitDx=0;exitDy=0;entryX=0;entryY=0.071;entryDx=0;entryDy=0;entryPerimeter=0;" edge="1" parent="1" source="Wcn8gaRO-9h2TXcu42JJ-1" target="Wcn8gaRO-9h2TXcu42JJ-6">
          <mxGeometry relative="1" as="geometry" />
        </mxCell>
        <mxCell id="Wcn8gaRO-9h2TXcu42JJ-8" value="启动" style="edgeLabel;html=1;align=center;verticalAlign=middle;resizable=0;points=[];" vertex="1" connectable="0" parent="Wcn8gaRO-9h2TXcu42JJ-7">
          <mxGeometry x="0.0017" y="1" relative="1" as="geometry">
            <mxPoint as="offset" />
          </mxGeometry>
        </mxCell>
        <mxCell id="Wcn8gaRO-9h2TXcu42JJ-10" value="" style="endArrow=none;dashed=1;html=1;rounded=0;exitX=0.5;exitY=1;exitDx=0;exitDy=0;" edge="1" parent="1" source="Wcn8gaRO-9h2TXcu42JJ-6">
          <mxGeometry width="50" height="50" relative="1" as="geometry">
            <mxPoint x="470" y="280" as="sourcePoint" />
            <mxPoint x="500" y="120" as="targetPoint" />
          </mxGeometry>
        </mxCell>
        <mxCell id="Wcn8gaRO-9h2TXcu42JJ-11" value="" style="endArrow=none;html=1;rounded=0;entryX=1.001;entryY=0.129;entryDx=0;entryDy=0;entryPerimeter=0;" edge="1" parent="1" target="Wcn8gaRO-9h2TXcu42JJ-6">
          <mxGeometry width="50" height="50" relative="1" as="geometry">
            <mxPoint x="280" y="120" as="sourcePoint" />
            <mxPoint x="680" y="120" as="targetPoint" />
          </mxGeometry>
        </mxCell>
        <mxCell id="Wcn8gaRO-9h2TXcu42JJ-12" value="后端" style="text;html=1;align=center;verticalAlign=middle;whiteSpace=wrap;rounded=0;" vertex="1" parent="1">
          <mxGeometry x="370" y="120" width="60" height="30" as="geometry" />
        </mxCell>
        <mxCell id="Wcn8gaRO-9h2TXcu42JJ-13" value="前端" style="text;html=1;align=center;verticalAlign=middle;whiteSpace=wrap;rounded=0;" vertex="1" parent="1">
          <mxGeometry x="570" y="120" width="60" height="30" as="geometry" />
        </mxCell>
        <mxCell id="Wcn8gaRO-9h2TXcu42JJ-18" style="edgeStyle=orthogonalEdgeStyle;rounded=0;orthogonalLoop=1;jettySize=auto;html=1;entryX=1;entryY=0.5;entryDx=0;entryDy=0;startArrow=classic;startFill=1;" edge="1" parent="1" source="Wcn8gaRO-9h2TXcu42JJ-14" target="Wcn8gaRO-9h2TXcu42JJ-17">
          <mxGeometry relative="1" as="geometry" />
        </mxCell>
        <mxCell id="Wcn8gaRO-9h2TXcu42JJ-19" value="交互" style="edgeLabel;html=1;align=center;verticalAlign=middle;resizable=0;points=[];" vertex="1" connectable="0" parent="Wcn8gaRO-9h2TXcu42JJ-18">
          <mxGeometry x="-0.36" y="1" relative="1" as="geometry">
            <mxPoint x="-9" y="-1" as="offset" />
          </mxGeometry>
        </mxCell>
        <mxCell id="Wcn8gaRO-9h2TXcu42JJ-14" value="页面" style="ellipse;shape=cloud;whiteSpace=wrap;html=1;" vertex="1" parent="1">
          <mxGeometry x="540" y="150" width="120" height="80" as="geometry" />
        </mxCell>
        <mxCell id="Wcn8gaRO-9h2TXcu42JJ-16" style="edgeStyle=orthogonalEdgeStyle;rounded=0;orthogonalLoop=1;jettySize=auto;html=1;exitX=0.5;exitY=0;exitDx=0;exitDy=0;" edge="1" parent="1" source="Wcn8gaRO-9h2TXcu42JJ-15" target="Wcn8gaRO-9h2TXcu42JJ-14">
          <mxGeometry relative="1" as="geometry" />
        </mxCell>
        <mxCell id="Wcn8gaRO-9h2TXcu42JJ-15" value="index.html&lt;div&gt;student.html&lt;/div&gt;&lt;div&gt;studyroom.html&lt;/div&gt;" style="rounded=1;whiteSpace=wrap;html=1;" vertex="1" parent="1">
          <mxGeometry x="540" y="260" width="120" height="60" as="geometry" />
        </mxCell>
        <mxCell id="Wcn8gaRO-9h2TXcu42JJ-21" style="edgeStyle=orthogonalEdgeStyle;rounded=0;orthogonalLoop=1;jettySize=auto;html=1;exitX=0;exitY=0.5;exitDx=0;exitDy=0;" edge="1" parent="1" source="Wcn8gaRO-9h2TXcu42JJ-17" target="Wcn8gaRO-9h2TXcu42JJ-20">
          <mxGeometry relative="1" as="geometry" />
        </mxCell>
        <mxCell id="Wcn8gaRO-9h2TXcu42JJ-22" value="触发" style="edgeLabel;html=1;align=center;verticalAlign=middle;resizable=0;points=[];" vertex="1" connectable="0" parent="Wcn8gaRO-9h2TXcu42JJ-21">
          <mxGeometry x="-0.1727" relative="1" as="geometry">
            <mxPoint as="offset" />
          </mxGeometry>
        </mxCell>
        <mxCell id="Wcn8gaRO-9h2TXcu42JJ-17" value="controller" style="rounded=1;whiteSpace=wrap;html=1;" vertex="1" parent="1">
          <mxGeometry x="414" y="170" width="60" height="40" as="geometry" />
        </mxCell>
        <mxCell id="Wcn8gaRO-9h2TXcu42JJ-26" style="edgeStyle=orthogonalEdgeStyle;rounded=0;orthogonalLoop=1;jettySize=auto;html=1;entryX=0.5;entryY=0;entryDx=0;entryDy=0;" edge="1" parent="1" source="Wcn8gaRO-9h2TXcu42JJ-20" target="Wcn8gaRO-9h2TXcu42JJ-25">
          <mxGeometry relative="1" as="geometry" />
        </mxCell>
        <mxCell id="Wcn8gaRO-9h2TXcu42JJ-27" value="调用" style="edgeLabel;html=1;align=center;verticalAlign=middle;resizable=0;points=[];" vertex="1" connectable="0" parent="Wcn8gaRO-9h2TXcu42JJ-26">
          <mxGeometry x="-0.1771" y="1" relative="1" as="geometry">
            <mxPoint as="offset" />
          </mxGeometry>
        </mxCell>
        <mxCell id="Wcn8gaRO-9h2TXcu42JJ-20" value="business" style="rounded=1;whiteSpace=wrap;html=1;" vertex="1" parent="1">
          <mxGeometry x="310" y="170" width="60" height="40" as="geometry" />
        </mxCell>
        <mxCell id="Wcn8gaRO-9h2TXcu42JJ-29" style="edgeStyle=orthogonalEdgeStyle;rounded=0;orthogonalLoop=1;jettySize=auto;html=1;exitX=1;exitY=0.5;exitDx=0;exitDy=0;entryX=0;entryY=0.5;entryDx=0;entryDy=0;" edge="1" parent="1" source="Wcn8gaRO-9h2TXcu42JJ-25" target="Wcn8gaRO-9h2TXcu42JJ-28">
          <mxGeometry relative="1" as="geometry" />
        </mxCell>
        <mxCell id="Wcn8gaRO-9h2TXcu42JJ-31" value="调用" style="edgeLabel;html=1;align=center;verticalAlign=middle;resizable=0;points=[];" vertex="1" connectable="0" parent="Wcn8gaRO-9h2TXcu42JJ-29">
          <mxGeometry x="-0.1455" y="-1" relative="1" as="geometry">
            <mxPoint as="offset" />
          </mxGeometry>
        </mxCell>
        <mxCell id="Wcn8gaRO-9h2TXcu42JJ-25" value="dao" style="rounded=1;whiteSpace=wrap;html=1;" vertex="1" parent="1">
          <mxGeometry x="310" y="250" width="60" height="40" as="geometry" />
        </mxCell>
        <mxCell id="Wcn8gaRO-9h2TXcu42JJ-28" value="mapper" style="rounded=1;whiteSpace=wrap;html=1;" vertex="1" parent="1">
          <mxGeometry x="414" y="250" width="60" height="40" as="geometry" />
        </mxCell>
        <mxCell id="Wcn8gaRO-9h2TXcu42JJ-32" value="数据" style="shape=cylinder3;whiteSpace=wrap;html=1;boundedLbl=1;backgroundOutline=1;size=8.400054931640625;" vertex="1" parent="1">
          <mxGeometry x="360" y="330" width="70" height="50" as="geometry" />
        </mxCell>
        <mxCell id="Wcn8gaRO-9h2TXcu42JJ-33" style="edgeStyle=orthogonalEdgeStyle;rounded=0;orthogonalLoop=1;jettySize=auto;html=1;exitX=0.5;exitY=1;exitDx=0;exitDy=0;entryX=0.5;entryY=0;entryDx=0;entryDy=0;entryPerimeter=0;" edge="1" parent="1" source="Wcn8gaRO-9h2TXcu42JJ-28" target="Wcn8gaRO-9h2TXcu42JJ-32">
          <mxGeometry relative="1" as="geometry" />
        </mxCell>
        <mxCell id="Wcn8gaRO-9h2TXcu42JJ-34" value="操作" style="edgeLabel;html=1;align=center;verticalAlign=middle;resizable=0;points=[];" vertex="1" connectable="0" parent="Wcn8gaRO-9h2TXcu42JJ-33">
          <mxGeometry x="-0.0966" y="1" relative="1" as="geometry">
            <mxPoint x="-4" as="offset" />
          </mxGeometry>
        </mxCell>
        <mxCell id="Wcn8gaRO-9h2TXcu42JJ-35" value="http://localhost:8090/" style="text;html=1;align=center;verticalAlign=middle;whiteSpace=wrap;rounded=0;" vertex="1" parent="1">
          <mxGeometry x="470" y="85" width="60" height="30" as="geometry" />
        </mxCell>
      </root>
    </mxGraphModel>
  </diagram>
</mxfile>
